<svg width="128" height="128" viewBox="0 0 128 128" fill="none" xmlns="http://www.w3.org/2000/svg">
<path d="M120.889 0H7.11111C5.22513 0 3.41639 0.749204 2.0828 2.0828C0.749204 3.41639 0 5.22513 0 7.11111V120.889C0 122.775 0.749204 124.584 2.0828 125.917C3.41639 127.251 5.22513 128 7.11111 128H68.3733V78.5067H51.7476V59.1289H68.3733V44.9067C68.3733 28.3733 78.4711 19.3636 93.2622 19.3636C98.2329 19.3493 103.211 19.6053 108.16 20.1244V37.3333H97.9556C89.9342 37.3333 88.3698 41.1591 88.3698 46.7556V59.0933H107.548L105.06 78.4711H88.3627V128H120.889C122.775 128 124.584 127.251 125.917 125.917C127.251 124.584 128 122.775 128 120.889V7.11111C128 5.22513 127.251 3.41639 125.917 2.0828C124.584 0.749204 122.775 0 120.889 0Z" fill="black"/>
</svg>
