<svg width="128" height="129" viewBox="0 0 128 129" fill="none" xmlns="http://www.w3.org/2000/svg">
<path d="M63.9501 31.0762C55.2332 31.0762 46.8733 34.539 40.7095 40.7027C34.5457 46.8665 31.083 55.2264 31.083 63.9433C31.083 72.6603 34.5457 81.0201 40.7095 87.1839C46.8733 93.3477 55.2332 96.8105 63.9501 96.8105C72.667 96.8105 81.0269 93.3477 87.1907 87.1839C93.3545 81.0201 96.8173 72.6603 96.8173 63.9433C96.8173 55.2264 93.3545 46.8665 87.1907 40.7027C81.0269 34.539 72.667 31.0762 63.9501 31.0762ZM63.9501 85.2885C58.2871 85.2885 52.8561 83.0389 48.8518 79.0346C44.8474 75.0302 42.5978 69.5992 42.5978 63.9362C42.5978 58.2733 44.8474 52.8422 48.8518 48.8379C52.8561 44.8336 58.2871 42.5839 63.9501 42.5839C69.6131 42.5839 75.0441 44.8336 79.0485 48.8379C83.0528 52.8422 85.3024 58.2733 85.3024 63.9362C85.3024 69.5992 83.0528 75.0302 79.0485 79.0346C75.0441 83.0389 69.6131 85.2885 63.9501 85.2885Z" fill="black"/>
<path d="M98.1181 37.5304C102.35 37.5304 105.78 34.0999 105.78 29.8681C105.78 25.6362 102.35 22.2057 98.1181 22.2057C93.8863 22.2057 90.4557 25.6362 90.4557 29.8681C90.4557 34.0999 93.8863 37.5304 98.1181 37.5304Z" fill="black"/>
<path d="M124.61 22.0773C122.964 17.828 120.449 13.9691 117.227 10.7476C114.004 7.52615 110.144 5.01303 105.894 3.36917C100.921 1.50231 95.6672 0.492873 90.3563 0.383829C83.5113 0.0852947 81.3434 0 63.9858 0C46.6282 0 44.4034 -7.14938e-07 37.6153 0.383829C32.3084 0.487298 27.0582 1.49695 22.0915 3.36917C17.8405 5.01112 13.9797 7.52355 10.7567 10.7453C7.53374 13.967 5.01984 17.8269 3.37628 22.0773C1.50905 27.0501 0.501925 32.3045 0.398045 37.6153C0.0924033 44.4531 0 46.6211 0 63.9858C0 81.3434 -5.29584e-08 83.554 0.398045 90.3563C0.504665 95.673 1.50689 100.919 3.37628 105.901C5.02445 110.15 7.5408 114.009 10.7645 117.23C13.9883 120.451 17.8485 122.965 22.0986 124.609C27.0559 126.551 32.3083 127.633 37.6295 127.808C44.4745 128.107 46.6424 128.199 64 128.199C81.3576 128.199 83.5824 128.199 90.3705 127.808C95.6809 127.7 100.935 126.693 105.908 124.83C110.157 123.182 114.016 120.667 117.238 117.444C120.461 114.222 122.976 110.363 124.624 106.115C126.493 101.139 127.495 95.8934 127.602 90.5766C127.908 83.7388 128 81.5708 128 64.2061C128 46.8414 128 44.6379 127.602 37.8356C127.519 32.4497 126.507 27.1186 124.61 22.0773ZM115.952 89.8303C115.906 93.9266 115.158 97.9848 113.741 101.829C112.674 104.593 111.04 107.103 108.944 109.197C106.848 111.292 104.337 112.924 101.573 113.99C97.7715 115.401 93.7564 116.148 89.7024 116.201C82.9498 116.514 81.0449 116.592 63.7299 116.592C46.4007 116.592 44.6308 116.592 37.7503 116.201C33.6983 116.151 29.6851 115.403 25.8872 113.99C23.1128 112.931 20.5917 111.301 18.487 109.206C16.3823 107.111 14.7407 104.598 13.6686 101.829C12.2715 98.0261 11.5242 94.0157 11.458 89.9653C11.1524 83.2128 11.0813 81.3079 11.0813 63.9929C11.0813 46.6708 11.0813 44.9009 11.458 38.0133C11.504 33.9193 12.2517 29.8635 13.6686 26.0222C15.8365 20.414 20.279 16 25.8872 13.8534C29.687 12.447 33.699 11.6994 37.7503 11.6428C44.51 11.3372 46.4078 11.2519 63.7299 11.2519C81.052 11.2519 82.829 11.2519 89.7024 11.6428C93.7568 11.6916 97.7724 12.4394 101.573 13.8534C104.337 14.9215 106.848 16.5559 108.943 18.6515C111.039 20.7471 112.673 23.2577 113.741 26.0222C115.139 29.8246 115.886 33.835 115.952 37.8854C116.258 44.645 116.336 46.5429 116.336 63.8649C116.336 81.1799 116.336 83.0422 116.03 89.8374H115.952V89.8303Z" fill="black"/>
</svg>
