<svg width="128" height="128" viewBox="0 0 128 128" fill="none" xmlns="http://www.w3.org/2000/svg">
<path d="M120.889 0H7.11111C5.22513 0 3.41639 0.749204 2.0828 2.0828C0.749204 3.41639 0 5.22513 0 7.11111V120.889C0 122.775 0.749204 124.584 2.0828 125.917C3.41639 127.251 5.22513 128 7.11111 128H120.889C122.775 128 124.584 127.251 125.917 125.917C127.251 124.584 128 122.775 128 120.889V7.11111C128 5.22513 127.251 3.41639 125.917 2.0828C124.584 0.749204 122.775 0 120.889 0ZM37.9662 109.063H18.9653V47.9787H37.9662V109.063ZM28.4658 39.6373C25.5463 39.6373 22.7463 38.4776 20.6819 36.4132C18.6175 34.3488 17.4578 31.5488 17.4578 28.6293C17.4578 25.7098 18.6175 22.9099 20.6819 20.8455C22.7463 18.7811 25.5463 17.6213 28.4658 17.6213C31.3853 17.6213 34.1852 18.7811 36.2496 20.8455C38.314 22.9099 39.4738 25.7098 39.4738 28.6293C39.4738 31.5488 38.314 34.3488 36.2496 36.4132C34.1852 38.4776 31.3853 39.6373 28.4658 39.6373ZM109.07 109.063H90.0907V79.36C90.0907 72.2773 89.9627 63.168 80.2204 63.168C70.336 63.168 68.8356 70.8907 68.8356 78.8622V109.07H49.8702V47.9858H68.0747V56.3342H68.3378C70.8622 51.5342 77.0631 46.4711 86.2862 46.4711C105.515 46.4711 109.063 59.1147 109.063 75.5698L109.07 109.063Z" fill="black"/>
</svg>
